<?xml version="1.0" standalone="no"?>
<!DOCTYPE svg PUBLIC "-//W3C//DTD SVG 20010904//EN"
 "http://www.w3.org/TR/2001/REC-SVG-20010904/DTD/svg10.dtd">
<svg version="1.0" xmlns="http://www.w3.org/2000/svg"
 width="256.000000pt" height="256.000000pt" viewBox="0 0 256.000000 256.000000"
 preserveAspectRatio="xMidYMid meet">
<metadata>
Created by potrace 1.15, written by Peter Selinger 2001-2017
</metadata>
<g transform="translate(0.000000,256.000000) scale(0.100000,-0.100000)"
fill="#000000" stroke="none">
<path d="M850 2344 c0 -3 56 -187 125 -408 69 -220 128 -409 131 -418 5 -17
-13 -18 -283 -18 l-288 1 -78 104 -77 105 -85 0 c-47 0 -85 -3 -85 -6 0 -3 22
-83 50 -179 27 -96 50 -181 50 -190 0 -9 -23 -94 -50 -190 -28 -96 -50 -176
-50 -179 0 -3 39 -6 88 -6 l87 1 78 104 77 105 285 0 c157 0 285 -3 285 -6 0
-3 -56 -186 -126 -407 -69 -221 -127 -410 -130 -419 -5 -16 5 -18 108 -18
l113 0 265 425 264 424 322 3 c308 3 324 4 350 24 48 35 67 70 71 126 5 71
-25 124 -87 156 -43 21 -53 22 -350 22 l-306 0 -265 423 -264 422 -112 3 c-62
1 -113 0 -113 -4z"/>
</g>
</svg>
